<?xml version="1.0" encoding="UTF-8" standalone="no"?>
<!DOCTYPE svg PUBLIC "-//W3C//DTD SVG 1.1//EN" "http://www.w3.org/Graphics/SVG/1.1/DTD/svg11.dtd">
<svg width="100%" height="100%" viewBox="0 0 8233 1631" version="1.1" xmlns="http://www.w3.org/2000/svg" xmlns:xlink="http://www.w3.org/1999/xlink" xml:space="preserve" xmlns:serif="http://www.serif.com/" style="fill-rule:evenodd;clip-rule:evenodd;stroke-linecap:round;stroke-linejoin:round;stroke-miterlimit:1.5;">
    <g transform="matrix(1,0,0,1,-4310.17,-1910.27)">
        <g id="Logo-texte-Blanc" serif:id="Logo texte Blanc" transform="matrix(1.43183,0,0,0.34916,-1568.85,2624.55)">
            <rect x="4105.94" y="-2045.71" width="5749.56" height="4668.89" style="fill:none;"/>
            <g transform="matrix(0.770693,0,0,3.16044,1007.65,5006.51)">
                <g transform="matrix(1,0,0,1,3824.36,-3417.67)">
                    <path d="M330.08,1377.88L1130.47,1951.88L1929.39,1382.27C1585.95,1488.64 703.225,1505.2 330.08,1377.88Z" style="fill:white;stroke:white;stroke-width:0.91px;"/>
                </g>
                <g transform="matrix(1,0,0,1,3824.36,-3417.67)">
                    <path d="M508.663,1496.92L896.692,1496.92C988.492,1565.73 1047.94,1675.42 1047.94,1798.89C1047.94,1802.53 1047.89,1806.16 1047.78,1809.77C1042.52,1636.2 899.979,1496.92 725.161,1496.92C547.012,1496.92 402.378,1641.55 402.378,1819.7C402.378,1997.85 547.012,2142.49 725.161,2142.49C816.837,2142.49 899.637,2104.19 958.427,2042.71C889.246,2124.28 786.002,2176.08 670.756,2176.08C462.579,2176.08 293.566,2007.07 293.566,1798.89C293.566,1648.73 381.499,1518.95 508.663,1458.28L508.663,1496.92Z" style="fill:white;stroke:white;stroke-width:0.91px;"/>
                    <path d="M964.594,1838.36C954.713,1963.17 849.677,2061.53 721.74,2061.53C587.282,2061.53 478.119,1952.89 478.119,1819.08C478.119,1685.26 587.282,1576.62 721.74,1576.62C803.787,1576.62 876.415,1617.08 920.506,1679.05C902.998,1668.76 882.605,1662.88 860.848,1662.88C795.495,1662.88 742.436,1715.94 742.436,1781.3C742.436,1846.65 795.495,1899.71 860.848,1899.71C905.518,1899.71 944.443,1874.92 964.594,1838.36Z" style="fill:white;stroke:white;stroke-width:0.91px;"/>
                </g>
                <g transform="matrix(-1,0,0,1,6086.86,-3415.78)">
                    <path d="M508.663,1496.92L896.692,1496.92C988.492,1565.73 1047.94,1675.42 1047.94,1798.89C1047.94,1802.53 1047.89,1806.16 1047.78,1809.77C1042.52,1636.2 899.979,1496.92 725.161,1496.92C547.012,1496.92 402.378,1641.55 402.378,1819.7C402.378,1997.85 547.012,2142.49 725.161,2142.49C816.837,2142.49 899.637,2104.19 958.427,2042.71C889.246,2124.28 786.002,2176.08 670.756,2176.08C462.579,2176.08 293.566,2007.07 293.566,1798.89C293.566,1648.73 381.499,1518.95 508.663,1458.28L508.663,1496.92Z" style="fill:white;stroke:white;stroke-width:0.91px;"/>
                    <path d="M964.594,1838.36C954.713,1963.17 849.677,2061.53 721.74,2061.53C587.282,2061.53 478.119,1952.89 478.119,1819.08C478.119,1685.26 587.282,1576.62 721.74,1576.62C803.787,1576.62 876.415,1617.08 920.506,1679.05C902.998,1668.76 882.605,1662.88 860.848,1662.88C795.495,1662.88 742.436,1715.94 742.436,1781.3C742.436,1846.65 795.495,1899.71 860.848,1899.71C905.518,1899.71 944.443,1874.92 964.594,1838.36Z" style="fill:white;stroke:white;stroke-width:0.91px;"/>
                </g>
            </g>
            <g id="Unseen-Labs" serif:id="Unseen Labs" transform="matrix(0.835267,0,0,3.56945,174.6,-4295.77)">
                <g transform="matrix(1024.44,0,0,912.575,6498.08,1375.57)">
                    <path d="M0.39,0L0.39,-0.067C0.366,-0.041 0.339,0.015 0.242,0.015C0.123,0.015 0.1,-0.048 0.087,-0.076C0.075,-0.103 0.069,-0.142 0.069,-0.19L0.069,-0.519L0.225,-0.519L0.225,-0.28C0.225,-0.207 0.227,-0.175 0.233,-0.159C0.241,-0.137 0.27,-0.12 0.301,-0.121C0.342,-0.121 0.37,-0.159 0.377,-0.178C0.384,-0.197 0.385,-0.226 0.385,-0.3L0.385,-0.519L0.541,-0.519L0.541,0L0.39,0Z" style="fill:white;fill-rule:nonzero;"/>
                </g>
                <g transform="matrix(1057.78,0,0,912.575,8625.99,1375.57)">
                    <path d="M0.369,-0.157L0.508,-0.155C0.494,-0.085 0.463,-0.054 0.426,-0.028C0.388,-0.001 0.341,0.02 0.284,0.02C0.194,0.02 0.126,-0.018 0.083,-0.077C0.049,-0.124 0.032,-0.183 0.032,-0.255C0.032,-0.341 0.054,-0.409 0.099,-0.457C0.144,-0.506 0.201,-0.53 0.27,-0.53C0.347,-0.53 0.408,-0.505 0.452,-0.454C0.497,-0.403 0.518,-0.325 0.516,-0.22L0.181,-0.219C0.181,-0.141 0.229,-0.094 0.284,-0.096C0.317,-0.097 0.325,-0.103 0.34,-0.114C0.354,-0.126 0.362,-0.131 0.369,-0.157ZM0.366,-0.312C0.366,-0.342 0.349,-0.42 0.278,-0.42C0.201,-0.42 0.182,-0.331 0.182,-0.311L0.366,-0.312Z" style="fill:white;fill-rule:nonzero;"/>
                </g>
                <g transform="matrix(1057.78,0,0,912.575,8091.75,1375.57)">
                    <path d="M0.369,-0.157L0.508,-0.155C0.494,-0.085 0.463,-0.054 0.426,-0.028C0.388,-0.001 0.341,0.02 0.284,0.02C0.194,0.02 0.126,-0.018 0.083,-0.077C0.049,-0.124 0.032,-0.183 0.032,-0.255C0.032,-0.341 0.054,-0.409 0.099,-0.457C0.144,-0.506 0.201,-0.53 0.27,-0.53C0.347,-0.53 0.408,-0.505 0.452,-0.454C0.497,-0.403 0.518,-0.325 0.516,-0.22L0.181,-0.219C0.181,-0.141 0.229,-0.094 0.284,-0.096C0.317,-0.097 0.325,-0.103 0.34,-0.114C0.354,-0.126 0.362,-0.131 0.369,-0.157ZM0.366,-0.312C0.366,-0.342 0.349,-0.42 0.278,-0.42C0.201,-0.42 0.182,-0.331 0.182,-0.311L0.366,-0.312Z" style="fill:white;fill-rule:nonzero;"/>
                </g>
                <g transform="matrix(1020.83,0,0,912.575,9140.38,1375.57)">
                    <path d="M0.543,0L0.39,0L0.389,-0.258C0.389,-0.314 0.383,-0.341 0.378,-0.358C0.372,-0.378 0.347,-0.396 0.314,-0.395C0.276,-0.394 0.247,-0.374 0.233,-0.338C0.225,-0.317 0.228,-0.293 0.228,-0.235L0.228,0L0.071,0L0.071,-0.519L0.218,-0.519L0.218,-0.442C0.263,-0.501 0.3,-0.53 0.369,-0.53C0.399,-0.53 0.427,-0.525 0.452,-0.514C0.477,-0.503 0.496,-0.489 0.509,-0.472C0.522,-0.455 0.531,-0.436 0.536,-0.415C0.541,-0.393 0.543,-0.362 0.543,-0.322L0.543,0Z" style="fill:white;fill-rule:nonzero;"/>
                </g>
                <g transform="matrix(1020.83,0,0,912.575,7041.76,1375.57)">
                    <path d="M0.543,0L0.39,0L0.389,-0.258C0.389,-0.314 0.383,-0.341 0.378,-0.358C0.372,-0.378 0.347,-0.396 0.314,-0.395C0.276,-0.394 0.247,-0.374 0.233,-0.338C0.225,-0.317 0.228,-0.293 0.228,-0.235L0.228,0L0.071,0L0.071,-0.519L0.218,-0.519L0.218,-0.442C0.263,-0.501 0.3,-0.53 0.369,-0.53C0.399,-0.53 0.427,-0.525 0.452,-0.514C0.477,-0.503 0.496,-0.489 0.509,-0.472C0.522,-0.455 0.531,-0.436 0.536,-0.415C0.541,-0.393 0.543,-0.362 0.543,-0.322L0.543,0Z" style="fill:white;fill-rule:nonzero;"/>
                </g>
                <g transform="matrix(1087.38,0,0,912.575,9689.74,1375.57)">
                    <rect x="0.072" y="-0.716" width="0.137" height="0.716" style="fill:white;fill-rule:nonzero;"/>
                </g>
                <g transform="matrix(1035.74,0,0,912.575,9938.64,1375.57)">
                    <path d="M0.199,-0.357L0.056,-0.361C0.049,-0.412 0.088,-0.47 0.122,-0.494C0.156,-0.518 0.207,-0.53 0.274,-0.53C0.336,-0.53 0.381,-0.523 0.411,-0.509C0.441,-0.494 0.462,-0.476 0.474,-0.453C0.487,-0.431 0.493,-0.39 0.493,-0.331L0.491,-0.17C0.491,-0.125 0.493,-0.093 0.495,-0.071C0.496,-0.049 0.501,-0.024 0.51,0.003L0.359,0.003C0.355,-0.006 0.349,-0.043 0.348,-0.045C0.324,-0.023 0.32,-0.017 0.293,-0.005C0.267,0.006 0.236,0.014 0.205,0.014C0.152,0.014 0.108,0.003 0.077,-0.026C0.047,-0.055 0.036,-0.097 0.036,-0.142C0.036,-0.171 0.043,-0.197 0.057,-0.22C0.071,-0.243 0.086,-0.263 0.112,-0.276C0.137,-0.288 0.175,-0.296 0.223,-0.306C0.287,-0.318 0.326,-0.322 0.342,-0.337C0.351,-0.346 0.347,-0.39 0.334,-0.401C0.321,-0.413 0.308,-0.422 0.272,-0.422C0.248,-0.422 0.238,-0.422 0.225,-0.411C0.217,-0.403 0.199,-0.383 0.199,-0.357ZM0.346,-0.24C0.328,-0.234 0.315,-0.23 0.277,-0.222C0.239,-0.214 0.23,-0.208 0.218,-0.2C0.201,-0.187 0.191,-0.171 0.191,-0.152C0.191,-0.14 0.195,-0.118 0.209,-0.103C0.217,-0.095 0.238,-0.084 0.249,-0.085C0.274,-0.086 0.288,-0.089 0.311,-0.105C0.327,-0.117 0.335,-0.14 0.339,-0.154C0.341,-0.162 0.346,-0.178 0.346,-0.211L0.346,-0.24Z" style="fill:white;fill-rule:nonzero;"/>
                </g>
                <g transform="matrix(912.575,0,0,912.575,10474.5,1375.57)">
                    <path d="M0.046,0.003L0.048,-0.716L0.221,-0.716L0.221,-0.458C0.263,-0.506 0.296,-0.53 0.354,-0.53C0.432,-0.53 0.483,-0.518 0.524,-0.473C0.565,-0.427 0.594,-0.352 0.594,-0.267C0.594,-0.178 0.567,-0.103 0.525,-0.055C0.482,-0.007 0.416,0.014 0.356,0.014C0.326,0.014 0.295,0.008 0.266,-0.007C0.237,-0.022 0.233,-0.03 0.212,-0.059L0.213,0.003L0.046,0.003ZM0.216,-0.269C0.216,-0.215 0.223,-0.179 0.24,-0.153C0.264,-0.117 0.305,-0.114 0.323,-0.114C0.341,-0.114 0.368,-0.12 0.39,-0.146C0.411,-0.172 0.421,-0.202 0.421,-0.258C0.421,-0.317 0.41,-0.342 0.39,-0.369C0.369,-0.396 0.34,-0.401 0.319,-0.401C0.284,-0.401 0.261,-0.385 0.248,-0.371C0.225,-0.346 0.216,-0.321 0.216,-0.269Z" style="fill:white;fill-rule:nonzero;"/>
                </g>
                <g transform="matrix(912.575,0,0,912.575,7638.11,1380.6)">
                    <path d="M0.007,-0.173L0.169,-0.172C0.175,-0.145 0.183,-0.097 0.275,-0.097C0.299,-0.097 0.344,-0.12 0.344,-0.151C0.345,-0.182 0.3,-0.198 0.277,-0.203C0.166,-0.228 0.122,-0.231 0.093,-0.251C0.052,-0.279 0.018,-0.302 0.017,-0.372C0.017,-0.435 0.043,-0.465 0.078,-0.495C0.114,-0.526 0.187,-0.537 0.261,-0.537C0.332,-0.537 0.393,-0.521 0.428,-0.498C0.462,-0.475 0.498,-0.414 0.499,-0.367L0.344,-0.367C0.338,-0.387 0.333,-0.403 0.317,-0.414C0.302,-0.425 0.292,-0.428 0.263,-0.428C0.227,-0.428 0.22,-0.422 0.204,-0.412C0.194,-0.405 0.189,-0.396 0.189,-0.385C0.189,-0.375 0.193,-0.366 0.202,-0.36C0.215,-0.351 0.242,-0.333 0.316,-0.327C0.394,-0.32 0.451,-0.295 0.478,-0.264C0.502,-0.237 0.517,-0.207 0.517,-0.163C0.517,-0.115 0.501,-0.074 0.462,-0.04C0.422,-0.005 0.35,0.014 0.272,0.014C0.201,0.014 0.133,0.001 0.089,-0.023C0.042,-0.049 0,-0.117 0.007,-0.173Z" style="fill:white;fill-rule:nonzero;"/>
                </g>
                <g transform="matrix(912.575,0,0,912.575,11034.3,1380.6)">
                    <path d="M0.007,-0.173L0.169,-0.172C0.175,-0.145 0.183,-0.097 0.275,-0.097C0.299,-0.097 0.344,-0.12 0.344,-0.151C0.345,-0.182 0.3,-0.198 0.277,-0.203C0.166,-0.228 0.122,-0.231 0.093,-0.251C0.052,-0.279 0.018,-0.302 0.017,-0.372C0.017,-0.435 0.043,-0.465 0.078,-0.495C0.114,-0.526 0.187,-0.537 0.261,-0.537C0.332,-0.537 0.393,-0.521 0.428,-0.498C0.462,-0.475 0.498,-0.414 0.499,-0.367L0.344,-0.367C0.338,-0.387 0.333,-0.403 0.317,-0.414C0.302,-0.425 0.292,-0.428 0.263,-0.428C0.227,-0.428 0.22,-0.422 0.204,-0.412C0.194,-0.405 0.189,-0.396 0.189,-0.385C0.189,-0.375 0.193,-0.366 0.202,-0.36C0.215,-0.351 0.242,-0.333 0.316,-0.327C0.394,-0.32 0.451,-0.295 0.478,-0.264C0.502,-0.237 0.517,-0.207 0.517,-0.163C0.517,-0.115 0.501,-0.074 0.462,-0.04C0.422,-0.005 0.35,0.014 0.272,0.014C0.201,0.014 0.133,0.001 0.089,-0.023C0.042,-0.049 0,-0.117 0.007,-0.173Z" style="fill:white;fill-rule:nonzero;"/>
                </g>
            </g>
            <g id="The-Bright-Side" serif:id="The Bright Side" transform="matrix(0.339446,0,0,1.20206,4241.01,51.9354)">
                <g transform="matrix(740.768,0,0,912.575,5644.93,2008.61)">
                    <path d="M0.582,-0.751L0.582,-0.694L0.347,-0.694L0.347,-0.022L0.281,-0.022L0.281,-0.694L0.047,-0.694L0.047,-0.751L0.582,-0.751Z" style="fill:white;fill-rule:nonzero;"/>
                </g>
                <g transform="matrix(810.113,0,0,912.575,6178.84,2008.61)">
                    <path d="M0.632,-0.751L0.632,-0.022L0.566,-0.022L0.566,-0.378L0.179,-0.378L0.179,-0.022L0.113,-0.022L0.113,-0.751L0.179,-0.751L0.179,-0.435L0.566,-0.435L0.566,-0.751L0.632,-0.751Z" style="fill:white;fill-rule:nonzero;"/>
                </g>
                <g transform="matrix(739.422,0,0,912.575,6866.79,2008.61)">
                    <path d="M0.562,-0.751L0.562,-0.694L0.179,-0.694L0.179,-0.439L0.468,-0.439L0.468,-0.382L0.179,-0.382L0.179,-0.079L0.569,-0.079L0.569,-0.022L0.113,-0.022L0.113,-0.751L0.562,-0.751Z" style="fill:white;fill-rule:nonzero;"/>
                </g>
                <g transform="matrix(780.035,0,0,912.575,7720.65,2008.61)">
                    <path d="M0.113,-0.751L0.346,-0.751C0.435,-0.751 0.499,-0.734 0.538,-0.699C0.57,-0.67 0.586,-0.628 0.586,-0.574C0.586,-0.527 0.569,-0.489 0.535,-0.459C0.507,-0.434 0.468,-0.418 0.421,-0.411L0.421,-0.406C0.485,-0.398 0.533,-0.376 0.566,-0.341C0.595,-0.31 0.609,-0.271 0.609,-0.225C0.609,-0.156 0.584,-0.104 0.534,-0.068C0.49,-0.037 0.432,-0.022 0.36,-0.022L0.113,-0.022L0.113,-0.751ZM0.178,-0.696L0.178,-0.435L0.32,-0.435C0.388,-0.435 0.439,-0.449 0.474,-0.477C0.503,-0.5 0.518,-0.531 0.518,-0.57C0.518,-0.617 0.503,-0.65 0.473,-0.669C0.445,-0.687 0.399,-0.696 0.337,-0.696L0.178,-0.696ZM0.178,-0.38L0.178,-0.077L0.351,-0.077C0.477,-0.077 0.54,-0.127 0.54,-0.227C0.54,-0.277 0.519,-0.315 0.478,-0.343C0.439,-0.368 0.388,-0.38 0.324,-0.38L0.178,-0.38Z" style="fill:white;fill-rule:nonzero;"/>
                </g>
                <g transform="matrix(752.356,0,0,912.575,8355.51,2008.61)">
                    <path d="M0.113,-0.751L0.352,-0.751C0.516,-0.751 0.598,-0.689 0.598,-0.564C0.598,-0.515 0.582,-0.474 0.552,-0.441C0.524,-0.412 0.486,-0.392 0.438,-0.381L0.616,-0.022L0.543,-0.022L0.375,-0.371C0.368,-0.37 0.355,-0.37 0.337,-0.37L0.178,-0.37L0.178,-0.022L0.113,-0.022L0.113,-0.751ZM0.178,-0.696L0.178,-0.424L0.341,-0.424C0.466,-0.424 0.529,-0.47 0.529,-0.563C0.529,-0.611 0.513,-0.645 0.481,-0.666C0.452,-0.686 0.407,-0.696 0.347,-0.696L0.178,-0.696Z" style="fill:white;fill-rule:nonzero;"/>
                </g>
                <g transform="matrix(912.575,0,0,912.575,8964.02,2008.61)">
                    <rect x="0.113" y="-0.751" width="0.066" height="0.729" style="fill:white;fill-rule:nonzero;"/>
                </g>
                <g transform="matrix(763.205,0,0,912.575,9287.65,2008.61)">
                    <path d="M0.625,-0.568L0.561,-0.549C0.532,-0.654 0.469,-0.707 0.371,-0.707C0.298,-0.707 0.24,-0.676 0.198,-0.613C0.159,-0.556 0.14,-0.48 0.14,-0.386C0.14,-0.278 0.164,-0.195 0.212,-0.138C0.253,-0.089 0.305,-0.065 0.37,-0.065C0.439,-0.065 0.492,-0.094 0.526,-0.151C0.554,-0.196 0.568,-0.254 0.569,-0.324L0.363,-0.324L0.363,-0.38L0.631,-0.38L0.631,-0.02L0.584,-0.02L0.576,-0.144C0.555,-0.097 0.525,-0.062 0.484,-0.039C0.45,-0.018 0.41,-0.008 0.366,-0.008C0.272,-0.008 0.198,-0.045 0.144,-0.12C0.095,-0.187 0.07,-0.275 0.07,-0.385C0.07,-0.509 0.103,-0.607 0.168,-0.677C0.222,-0.735 0.29,-0.764 0.37,-0.764C0.438,-0.764 0.495,-0.744 0.541,-0.704C0.58,-0.67 0.608,-0.625 0.625,-0.568Z" style="fill:white;fill-rule:nonzero;"/>
                </g>
                <g transform="matrix(810.113,0,0,912.575,9923.98,2008.61)">
                    <path d="M0.632,-0.751L0.632,-0.022L0.566,-0.022L0.566,-0.378L0.179,-0.378L0.179,-0.022L0.113,-0.022L0.113,-0.751L0.179,-0.751L0.179,-0.435L0.566,-0.435L0.566,-0.751L0.632,-0.751Z" style="fill:white;fill-rule:nonzero;"/>
                </g>
                <g transform="matrix(731.726,0,0,912.575,10600.9,2008.61)">
                    <path d="M0.582,-0.751L0.582,-0.694L0.347,-0.694L0.347,-0.022L0.281,-0.022L0.281,-0.694L0.047,-0.694L0.047,-0.751L0.582,-0.751Z" style="fill:white;fill-rule:nonzero;"/>
                </g>
                <g transform="matrix(778.252,0,0,912.575,11439.1,2008.61)">
                    <path d="M0.545,-0.595L0.479,-0.574C0.451,-0.663 0.395,-0.708 0.311,-0.708C0.259,-0.708 0.218,-0.695 0.189,-0.668C0.164,-0.645 0.152,-0.615 0.152,-0.578C0.152,-0.535 0.166,-0.501 0.193,-0.479C0.217,-0.46 0.256,-0.444 0.312,-0.43L0.341,-0.422C0.431,-0.399 0.492,-0.369 0.524,-0.332C0.549,-0.303 0.561,-0.262 0.561,-0.211C0.561,-0.145 0.537,-0.094 0.488,-0.057C0.444,-0.024 0.387,-0.008 0.315,-0.008C0.246,-0.008 0.189,-0.025 0.143,-0.06C0.103,-0.091 0.074,-0.134 0.057,-0.188L0.123,-0.213C0.149,-0.113 0.213,-0.063 0.314,-0.063C0.377,-0.063 0.424,-0.078 0.455,-0.108C0.48,-0.132 0.492,-0.165 0.492,-0.205C0.492,-0.25 0.479,-0.284 0.453,-0.306C0.427,-0.328 0.382,-0.347 0.318,-0.363L0.293,-0.37C0.211,-0.391 0.154,-0.42 0.123,-0.456C0.098,-0.485 0.085,-0.525 0.085,-0.575C0.085,-0.632 0.107,-0.678 0.15,-0.713C0.191,-0.747 0.244,-0.764 0.31,-0.764C0.427,-0.764 0.505,-0.708 0.545,-0.595Z" style="fill:white;fill-rule:nonzero;"/>
                </g>
                <g transform="matrix(912.575,0,0,912.575,11989.9,2009.06)">
                    <rect x="0.113" y="-0.751" width="0.066" height="0.729" style="fill:white;fill-rule:nonzero;"/>
                </g>
                <g transform="matrix(751.715,0,0,912.575,12314.3,2008.61)">
                    <path d="M0.625,-0.568L0.561,-0.549C0.532,-0.654 0.469,-0.707 0.371,-0.707C0.298,-0.707 0.24,-0.676 0.198,-0.613C0.159,-0.556 0.14,-0.48 0.14,-0.386C0.14,-0.278 0.164,-0.195 0.212,-0.138C0.253,-0.089 0.305,-0.065 0.37,-0.065C0.439,-0.065 0.492,-0.094 0.526,-0.151C0.554,-0.196 0.568,-0.254 0.569,-0.324L0.363,-0.324L0.363,-0.38L0.631,-0.38L0.631,-0.02L0.584,-0.02L0.576,-0.144C0.555,-0.097 0.525,-0.062 0.484,-0.039C0.45,-0.018 0.41,-0.008 0.366,-0.008C0.272,-0.008 0.198,-0.045 0.144,-0.12C0.095,-0.187 0.07,-0.275 0.07,-0.385C0.07,-0.509 0.103,-0.607 0.168,-0.677C0.222,-0.735 0.29,-0.764 0.37,-0.764C0.438,-0.764 0.495,-0.744 0.541,-0.704C0.58,-0.67 0.608,-0.625 0.625,-0.568Z" style="fill:white;fill-rule:nonzero;"/>
                </g>
                <g transform="matrix(831.848,0,0,912.575,12942.6,2008.61)">
                    <path d="M0.632,-0.751L0.632,-0.022L0.566,-0.022L0.566,-0.378L0.179,-0.378L0.179,-0.022L0.113,-0.022L0.113,-0.751L0.179,-0.751L0.179,-0.435L0.566,-0.435L0.566,-0.751L0.632,-0.751Z" style="fill:white;fill-rule:nonzero;"/>
                </g>
                <g transform="matrix(912.575,0,0,912.575,13571.5,2008.61)">
                    <path d="M0.582,-0.751L0.582,-0.694L0.347,-0.694L0.347,-0.022L0.281,-0.022L0.281,-0.694L0.047,-0.694L0.047,-0.751L0.582,-0.751Z" style="fill:white;fill-rule:nonzero;"/>
                </g>
            </g>
            <g transform="matrix(0.724653,0,0,2.86401,915.007,-3231.72)">
                <path d="M6670.73,1881.53L7044.22,1881.53" style="fill:none;stroke:white;stroke-width:19.54px;stroke-linecap:butt;"/>
            </g>
        </g>
    </g>
</svg>
